<svg xmlns="http://www.w3.org/2000/svg" viewBox="0 0 6648.68 4190.27"><defs><style>.a,.b,.c{fill:#fff;}.a{stroke:#f1f1f2;stroke-width:75px;}.c{font-size:450px;font-family:Gotham-Light, Gotham;font-weight:300;}.d{letter-spacing:0em;}.e{letter-spacing:-0.13em;}.f{letter-spacing:-0.01em;}.g{letter-spacing:0em;}</style></defs><title>white-horizontal</title><line class="a" x1="3373.63" y1="34.97" x2="1787.24" y2="710.5"/><line class="a" x1="4912.18" y1="715.85" x2="3339.89" y2="34.41"/><line class="a" x1="1802.03" y1="679.47" x2="1802.03" y2="1825.13"/><line class="a" x1="3342.06" y1="3352.58" x2="1789.51" y2="2687.72"/><line class="a" x1="4912.56" y1="2679.6" x2="3318.62" y2="3352.89"/><line class="a" x1="3333.31" y1="2456.24" x2="1780.76" y2="1791.38"/><line class="a" x1="4871.84" y1="1781.36" x2="3313.86" y2="2462.55"/><line class="a" x1="4889.51" y1="1747.73" x2="4889.51" y2="2712.64"/><line class="a" x1="3330.08" y1="3362.36" x2="3330.08" y2="924.98"/><line class="a" x1="2423.54" y1="907.77" x2="4231.52" y2="907.77"/><line class="a" x1="1760.63" y1="2690.39" x2="2204.47" y2="2480.25"/><line class="a" x1="4893.25" y1="685.06" x2="4893.25" y2="1129.81"/><circle class="b" cx="4897.25" cy="1274.9" r="45.83"/><text class="c" transform="translate(0 4089.02)"><tspan class="d">S</tspan><tspan x="285.75" y="0">tudent </tspan><tspan class="e" x="1892.23" y="0">T</tspan><tspan x="2123.08" y="0">echnical </tspan><tspan class="f" x="4068.86" y="0">C</tspan><tspan class="g" x="4396.46" y="0">ommuntiy</tspan></text></svg>